<?xml version="1.0" encoding="UTF-8"?>
<svg id="_レイヤー_2" data-name="レイヤー 2" xmlns="http://www.w3.org/2000/svg" viewBox="0 0 460 100">
  <defs>
    <style>
      .cls-1 {
        fill: #e6e6e6;
      }

      .cls-1, .cls-2 {
        stroke-width: 0px;
      }

      .cls-2 {
        fill: #fff;
      }
    </style>
  </defs>
  <g id="_素材" data-name="素材">
    <g>
      <rect class="cls-1" width="460" height="100" rx="6" ry="6"/>
      <g>
        <path class="cls-2" d="m145.88,35.83c.36.92.88,1.8,2.04,3.6l12.64,18.92c.44.68,1.64,2.64,2.6,4.36-.16-3.2-.24-4.96-.24-5.32v-16.96c0-1.96-.08-3.2-.32-4.6h3.72c-.24,1.44-.32,2.56-.32,4.6v21.32c0,2,.08,3.2.32,4.48h-4.36c-.56-1.16-1-1.96-2.08-3.6l-12.84-19.28c-.32-.48-1.64-2.76-2.2-3.84.16,1.88.24,3.84.24,4.88v17.08c0,2.12.08,3.44.32,4.76h-3.72c.24-1.28.32-2.68.32-4.76v-21.16c0-1.84-.08-3.04-.32-4.48h4.2Z"/>
        <path class="cls-2" d="m200.79,53.71c-2.08,0-3,.04-4.12.24v-3.24c1.2.2,2.2.24,4.36.24h1.16c1.88,0,3-.04,4.24-.16-.24,1.68-.28,2.68-.28,4.52v3.68c0,1.88.04,2.84.28,4.44-2.4,1.44-3.6,2-5.44,2.48-1.68.48-3.92.76-5.96.76-3.8,0-6.8-.96-9.12-2.96-3.12-2.76-4.92-7.36-4.92-12.76,0-9.64,5.44-15.76,13.96-15.76,3.56,0,6.44,1,8.56,2.96,1.32,1.24,2.04,2.4,2.92,4.56l-3.12,1.04c-1.44-3.92-4.12-5.76-8.4-5.76-6.6,0-10.64,4.92-10.64,12.96,0,4.28,1.16,7.8,3.36,10.16,1.8,1.92,4.28,2.88,7.44,2.88s5.72-.72,8.08-2.24v-8.04h-2.36Z"/>
        <path class="cls-2" d="m224.84,63.35q-3.24.04-4.28.16v-3.16c1.32.24,1.88.28,4.36.28h19.04v-19.32h-18.2c-2.4,0-3.24.04-4.6.2v-3.2c1.4.24,2,.28,4.6.28h19.2c.52,0,1.08-.04,2.08-.08-.08,1-.08,1.68-.08,3.12v20.48c0,1.48.08,2.92.2,3.64h-3.2v-2.4h-19.12Z"/>
        <path class="cls-2" d="m285.04,36.43c-.52.76-.68,1.12-1.24,2.44-2.6,6.12-3.84,8.56-5.88,11.68,3.44,2.84,6,5.28,9.2,8.6l-2.24,2.48c-2.12-2.72-4.68-5.28-8.72-8.68-4.2,5.76-9.08,9.96-16.08,13.92-.72-1.2-1.04-1.56-2.08-2.4,6.4-3.12,11.52-7.44,15.92-13.36-3.64-2.92-7.4-5.4-10.76-7.24l2-2.12c3.92,2.36,5.92,3.68,10.4,6.96,1.88-2.96,3.32-5.84,4.72-9.32,1-2.44,1.2-3.08,1.4-4.24l3.36,1.28Z"/>
        <path class="cls-2" d="m299.64,62.75c3.12-.12,7.92-1.36,11.64-3.08,7.72-3.44,13.08-9.32,16.32-17.8.92,1.24,1.32,1.6,2.44,2.36-3.2,6.96-6.92,11.64-12.2,15.28-4.12,2.8-8.24,4.44-14.92,5.96-1.08.24-1.4.32-2.4.64l-.88-3.36Zm2.56-24.8c4.28,2.72,6.76,4.68,9.64,7.52l-2.08,2.48c-2.88-3.12-6.04-5.72-9.52-7.84l1.96-2.16Z"/>
        <path class="cls-2" d="m345.84,67.47c.16-1.08.24-2.04.24-4.2v-24.84c0-2.12-.08-3.08-.24-4.08h3.44c-.16,1.04-.2,1.88-.2,4.16v7.48c6.16,2.2,10.8,4.4,17.8,8.44l-1.72,2.96c-3.76-2.64-9.28-5.6-14.92-7.92-.6-.24-.88-.4-1.24-.68l-.08.04c.12.8.16,1.36.16,2.36v12.04c0,2.24.04,3.12.2,4.24h-3.44Z"/>
      </g>
      <path class="cls-2" d="m53,71c-11.03,0-20-8.97-20-20s8.97-20,20-20,20,8.97,20,20-8.97,20-20,20Zm0-37.14c-9.45,0-17.14,7.69-17.14,17.14s7.69,17.14,17.14,17.14,17.14-7.69,17.14-17.14-7.69-17.14-17.14-17.14Zm10.48,11.56l-2.01-2.03-12.3,12.17-5.59-5.51-2.01,2.03,7.6,7.49,14.31-14.16Z"/>
    </g>
  </g>
</svg>