<?xml version="1.0" encoding="UTF-8"?>
<svg id="_レイヤー_2" data-name="レイヤー 2" xmlns="http://www.w3.org/2000/svg" viewBox="0 0 75 60">
  <defs>
    <style>
      .cls-1 {
        fill: #e6e6e6;
        stroke-width: 0px;
      }
    </style>
  </defs>
  <g id="_素材" data-name="素材">
    <path class="cls-1" d="m9.43,10.56v40.24h55.72V10.56H9.43Zm52.91,2.81v28.76l-13.33-13.26-6.55,7.56-14.66-14.67-15.56,17.49V13.37h50.1ZM12.24,43.49l15.68-17.62,22.11,22.12H12.24v-4.5Zm41.76,4.5l-9.55-9.55,4.71-5.44,13.18,13.11v1.89h-8.34ZM2.65,22.5H0V6.62C0,2.97,2.97,0,6.62,0h15.88v2.65H6.62c-2.19,0-3.97,1.78-3.97,3.97v15.88Zm69.71,15h2.65v15.88c0,3.65-2.97,6.62-6.62,6.62h-15.88v-2.65h15.88c2.19,0,3.97-1.78,3.97-3.97v-15.88Z"/>
  </g>
</svg>