<?xml version="1.0" encoding="UTF-8"?>
<svg id="_レイヤー_2" data-name="レイヤー 2" xmlns="http://www.w3.org/2000/svg" viewBox="0 0 400 100">
  <defs>
    <style>
      .cls-1 {
        fill: #0063cc;
      }

      .cls-1, .cls-2 {
        stroke-width: 0px;
      }

      .cls-2 {
        fill: #fff;
      }
    </style>
  </defs>
  <g id="_素材" data-name="素材">
    <g>
      <rect class="cls-1" width="400" height="100" rx="6" ry="6"/>
      <g>
        <path class="cls-2" d="m220.19,40.11q-.56.6-1.8,2c-.96,1.04-2,2.08-3.32,3.24,2.48,1.68,4.08,2.48,7.4,3.68-.68.76-.96,1.2-1.48,2.28-4.92-2.16-7.92-4.12-11.48-7.48-2.56-2.44-4-4.28-5.64-7.24-2,3.24-3.48,5.04-6.28,7.64-3.36,3.16-6.12,5-10.72,7.24-.48-.96-.76-1.36-1.52-2.12,3.76-1.64,6.32-3.16,9.16-5.52-2.08-2-3.4-3.16-5.84-4.88l1.76-1.6c2.4,1.8,3.76,2.96,5.84,4.96,2.24-2.12,3.48-3.6,4.96-5.96h-7.28c-.68,0-1.52.08-2.6.2v-2.52c.84.16,1.48.2,2.88.2h7.56c1.88,0,2.64-.04,3.56-.16.28,1.56,1.24,3.24,3.24,5.56,1.76-1.72,3.36-3.72,4.16-5.2l2.08,1.48c-2.56,2.96-3.32,3.76-4.88,5.2,1.16,1.16,2.04,1.96,3.4,3.04,2.28-2.16,3.8-3.88,4.76-5.56l2.08,1.52Zm-22.2,25.56c-.64-1.52-1.36-2.88-2.36-4.4l2.36-.84c1.12,1.96,1.68,3.12,2.56,5.24h6.92c1.12-1.8,1.88-3.28,2.68-5.44l2.36,1.08c-1.08,2.08-1.72,3.2-2.52,4.36h7.84c1.76,0,2.8-.08,3.92-.24v2.76c-1.12-.16-2.28-.24-4-.24h-27.39c-1.72,0-2.8.08-3.96.24v-2.76c1.12.2,2.12.24,3.88.24h7.72Zm-2.48-5.84c-1.32,0-2.16.04-3.08.12.12-1,.16-1.68.16-2.68v-4.28c0-1-.04-1.72-.16-2.68,1.04.12,1.84.16,3.2.16h16.72c1.36,0,2.24-.04,3.2-.16-.12.88-.16,1.56-.16,2.68v4.28c0,1.2,0,1.72.16,2.68-.96-.08-1.8-.12-3.16-.12h-16.88Zm-.44-2.16h17.84v-5h-17.84v5Zm1.96-12.44c.88.16,1.64.2,3.16.2h7.64c1.52,0,2.28-.04,3.12-.2v2.52c-.92-.16-1.68-.2-3.16-.2h-7.52c-1.48,0-2.4.04-3.24.2v-2.52Z"/>
        <path class="cls-2" d="m249.8,59.79c-1.36,1.08-2.16,1.68-3.28,2.48q-.72.52-3.96,2.6-.68.44-1.2.76l-1.04-2c-3.92,1.52-6.28,2.28-10.96,3.48-1.28.32-1.72.44-2.4.68l-.52-2.68c1.68-.08,3.6-.48,6.72-1.32v-12.32h-2.76c-1.6,0-2.6.04-3.72.2v-2.52c1.04.16,2.08.2,3.76.2h2.72v-4.16h-1.36c-.96,0-1.68.04-2.6.16v-2.28c-.68.68-1.04,1-2,1.84-.56-1.08-.64-1.2-1.44-1.96,3.44-2.6,5.84-5.76,7.2-9.52h2.84c1.56,3.32,3.08,5.24,5.8,7.36-.64.76-.96,1.2-1.44,2.08-2.8-2.64-3.96-4.24-5.64-7.48-1.48,3.08-2.88,5.16-5.28,7.6.68.12,1.56.16,2.64.16h4.92c1.16,0,1.88-.04,2.68-.16v2.36c-.88-.12-1.52-.16-2.68-.16h-1.36v4.16h1.68c1.56,0,2.48-.04,3.52-.2v2.52c-1-.16-1.96-.2-3.52-.2h-1.68v11.68c1.76-.56,2.56-.84,4.76-1.72l.08,1.84c2.68-1.16,6.28-3.48,9.52-6.04v-9.16h-5.68c-1.68,0-2.68.04-3.64.2v-2.56c1.04.16,2.12.24,3.64.24h11.24c.2-1.92.2-2,.32-3.68h-8.84c-1.6,0-2.36.04-3.44.2v-2.44c.96.16,1.76.2,3.44.2h9c.04-1.2.08-1.6.16-3.52h-9.92c-1.72,0-2.76.04-3.8.2v-2.52c1.08.16,2.04.2,3.8.2h8.64c1.72,0,2.76-.04,3.88-.16q-.16.88-.36,4.16c-.12,2.08-.24,3.92-.52,7.36h.88c1.6,0,2.68-.08,3.76-.24v2.56c-1.04-.16-2.04-.2-3.72-.2h-6.48v.12c.76,3.24,1.36,4.96,2.76,7.56,1.92-1.88,3.16-3.52,4.48-5.8l2.08,1.4c-2.16,2.88-3.72,4.64-5.48,6.28,2,3.04,4.04,5.04,7.24,7.08-.68.6-1.2,1.28-1.72,2.2-2.92-2.16-4.76-4.12-6.64-7.12-1.36-2.2-2-3.68-3-7.08.16,3.64.24,5.16.24,7.4v6.04c0,2.28-.84,3-3.52,3-.84,0-2.04-.04-3.72-.16-.08-1.04-.24-1.68-.52-2.52,1.44.24,2.72.36,3.76.36,1.36,0,1.68-.2,1.68-1v-6.04Zm-20.6,2.64c-.44-3.44-.8-5.08-1.76-8.2l1.96-.64c.88,2.8,1.32,4.68,1.88,8.12l-2.08.72Zm7.64-2.32c.96-2.52,1.4-4.24,1.72-6.96l2,.76c-.56,2.68-1.04,4.4-1.92,6.84l-1.8-.64Zm7.24-10.12c1.72,2.72,2.4,3.96,3.4,6.24l-1.96,1.24c-1-2.64-1.76-4.16-3.36-6.56l1.92-.92Z"/>
      </g>
    </g>
  </g>
</svg>