<?xml version="1.0" encoding="UTF-8"?>
<svg id="_レイヤー_2" data-name="レイヤー 2" xmlns="http://www.w3.org/2000/svg" viewBox="0 0 50 50">
  <defs>
    <style>
      .cls-1 {
        fill: #4d4d4d;
        stroke-width: 0px;
      }
    </style>
  </defs>
  <g id="_素材" data-name="素材">
    <path class="cls-1" d="m41.27,0l-4.88,4.88s-.07.03-.09.06L12.52,28.72c-.17.17-.29.38-.36.6l-2.84,9.58c-.15.5-.01,1.05.36,1.42.27.27.64.42,1.01.42.14,0,.27-.02.41-.06l9.58-2.84c.23-.07.44-.19.6-.36l23.78-23.78s.04-.06.06-.09l4.88-4.88L41.27,0Zm-21.76,35.21l-6.7,1.99,1.99-6.7,22.44-22.44,4.72,4.72-22.44,22.44Zm24.44-24.48l-4.69-4.68,2-2,4.68,4.68-2,2Zm-3.22,15.2v18.67c0,2.98-2.42,5.4-5.4,5.4H5.4c-2.98,0-5.4-2.42-5.4-5.4V14.66c0-2.98,2.42-5.4,5.4-5.4h18.67l-4.16,4.16H5.4c-.69,0-1.25.56-1.25,1.25v29.93c0,.69.56,1.25,1.25,1.25h29.93c.69,0,1.25-.56,1.25-1.25v-14.51l4.16-4.16Z"/>
  </g>
</svg>