<?xml version="1.0" encoding="UTF-8"?>
<svg id="_レイヤー_2" data-name="レイヤー 2" xmlns="http://www.w3.org/2000/svg" viewBox="0 0 54 45">
  <defs>
    <style>
      .cls-1 {
        fill: #5281e0;
        stroke-width: 0px;
      }
    </style>
  </defs>
  <g id="_素材" data-name="素材">
    <path class="cls-1" d="m10.12,10.08v24.64h33.75V10.08H10.12Zm31.45,2.31v16.08l-7.63-7.61-3.89,4.51-8.71-8.75-8.92,10.06v-14.3h29.15ZM12.43,30.17l9.02-10.17,12.37,12.42H12.43v-2.25Zm24.64,2.25l-5.38-5.4,2.39-2.77,7.5,7.49v.68h-4.51ZM4.45,25.18v7.49c1.34.45,2.3,1.69,2.3,3.17,0,1.86-1.51,3.36-3.38,3.36s-3.38-1.5-3.38-3.36c0-1.46.94-2.69,2.25-3.15v-8.54l3.21-2.87h4.66v2.26h-3.84l-1.84,1.64Zm39.43,16.46c0,1.86-1.51,3.36-3.38,3.36-1.54,0-2.82-1.03-3.23-2.43h-8.51l-2.88-3.2v-4.64h2.27v3.82l1.65,1.83h7.59c.5-1.23,1.71-2.1,3.12-2.1,1.86,0,3.38,1.5,3.38,3.36Zm7.88-29.52v8.54l-3.21,2.87h-4.66v-2.26h3.84l1.84-1.64v-7.49c-1.34-.45-2.3-1.69-2.3-3.17,0-1.86,1.51-3.36,3.38-3.36s3.38,1.5,3.38,3.36c0,1.46-.94,2.69-2.25,3.15Zm-23.62-6.48v4.64h-2.27v-3.82l-1.65-1.83h-7.59c-.5,1.23-1.71,2.1-3.12,2.1-1.86,0-3.38-1.5-3.38-3.36s1.51-3.36,3.38-3.36c1.54,0,2.82,1.03,3.23,2.43h8.51l2.88,3.2Z"/>
  </g>
</svg>