<?xml version="1.0" encoding="UTF-8"?>
<svg id="_レイヤー_2" data-name="レイヤー 2" xmlns="http://www.w3.org/2000/svg" viewBox="0 0 38 40">
  <defs>
    <style>
      .cls-1 {
        fill: #e6e6e6;
        stroke-width: 0px;
      }
    </style>
  </defs>
  <g id="_素材" data-name="素材">
    <path class="cls-1" d="m38,2v12h-11.67v-3h6.74c-3.14-4.81-8.46-8-14.51-8-7.06,0-13.14,4.33-15.9,10.53l-2.65-1.24C3.23,5.05,10.32,0,18.55,0c6.81,0,12.82,3.46,16.53,8.74V2h2.92ZM2.92,38v-6.74c3.71,5.28,9.72,8.74,16.53,8.74,8.23,0,15.33-5.05,18.55-12.28l-2.65-1.24c-2.77,6.2-8.85,10.53-15.9,10.53-6.05,0-11.37-3.19-14.51-8h6.74v-3H0v12h2.92Z"/>
  </g>
</svg>