<?xml version="1.0" encoding="UTF-8"?>
<svg id="_レイヤー_2" data-name="レイヤー 2" xmlns="http://www.w3.org/2000/svg" viewBox="0 0 400 100">
  <defs>
    <style>
      .cls-1 {
        fill: #0063cc;
      }

      .cls-1, .cls-2 {
        stroke-width: 0px;
      }

      .cls-2 {
        fill: #fff;
      }
    </style>
  </defs>
  <g id="_素材" data-name="素材">
    <g>
      <rect class="cls-1" width="400" height="100" rx="6" ry="6"/>
      <g>
        <path class="cls-2" d="m190.6,51.55c0-1.56.04-3.04.12-4.8-1.16,2.12-2.12,3.4-4.2,5.64q-.84-1.36-1.64-2.28c3.52-3.48,5.96-7.2,7.76-11.92.8-2.04,1.4-4.12,1.6-5.52l2.72.88c-.24.56-.4,1.04-.72,2.16-.64,2-1.72,4.6-3.2,7.48v21.28c0,1.84.04,3.24.2,4.68h-2.88c.16-1.52.24-2.76.24-4.8v-12.8Zm16.68-4.48h-4.44c-2,0-2.96.04-4.24.16.08-1.08.16-2.12.16-3.6v-5.2c0-1.52-.04-2.4-.16-3.56,1.12.16,2.24.2,4.4.2h11.8c2.2,0,3.28-.04,4.4-.2-.16,1.24-.16,2-.16,3.64v5.16c0,1.64.04,2.52.16,3.56-.88-.08-2.68-.16-4.2-.16h-5.32v4.24h8.16c1.48,0,2.8-.08,3.92-.24v2.72c-1.36-.16-2.72-.24-3.88-.24h-7.52c2.28,2.96,3.28,4,5.4,5.72,2.32,1.92,4.44,3.24,7.24,4.48-.76.8-1.2,1.44-1.8,2.48-2.44-1.48-4.32-2.8-6.36-4.6-2.24-1.92-3.44-3.32-5.36-6.16.12,1.24.2,2.48.2,4.28v5.48c0,1.48.04,2.72.24,3.92h-2.88c.16-1.24.24-2.48.24-3.92v-5.44c0-1.88.04-3.2.16-4.32-1.88,3-3.36,4.68-6.08,6.96-1.96,1.68-3.32,2.64-5.52,3.88-.52-.88-1.08-1.56-1.84-2.24,3.2-1.56,5.32-3,7.84-5.24,1.92-1.72,2.8-2.72,4.6-5.28h-6.92c-1.52,0-2.84.08-3.96.24v-2.72c1.16.16,2.36.24,3.96.24h7.76v-4.24Zm-6.04-2.28h15.28v-7.44h-15.28v7.44Z"/>
        <path class="cls-2" d="m230.8,39.79c-2.08,0-3.32.04-4.48.2v-2.8c1,.16,2.36.24,4.52.24h7.76c.88-2.08,1.24-3.2,1.56-4.92l2.96.44c-.44,1.04-.56,1.32-1.16,2.8-.16.48-.36.92-.68,1.68h15.92c2.16,0,3.48-.08,4.44-.24v2.8c-1.16-.12-2.64-.2-4.4-.2h-17.12c-1.84,3.76-3.36,6.12-5.84,9.28v15.92c0,1.6.08,2.84.24,4h-3.08c.16-.96.24-2.08.24-4v-12.96c-1.4,1.48-2.28,2.28-4.48,4.24-.52-1.04-.84-1.48-1.6-2.28,2.4-1.88,4.28-3.6,6.04-5.56,0-1.28-.04-1.44-.08-2.32h2c1.48-2,2.52-3.68,3.92-6.32h-6.68Zm20,25.88c0,2.48-.72,3.08-3.76,3.08-1.16,0-2.4-.08-4.16-.28-.16-1.16-.28-1.68-.64-2.56,1.84.36,3.16.52,4.36.52,1.28,0,1.6-.24,1.6-1.16v-8.76h-7.6c-1.68,0-2.92.08-4.08.24v-2.72c1.12.16,2.28.24,4.08.24h7.6v-1.36c0-.8-.04-1.56-.12-2.24h1.76c2.36-1.24,3.56-2.12,5.64-4.04h-12.48c-1.4,0-2.44.08-3.68.24v-2.64c1,.12,1.84.16,3.72.16h11.72c1.48,0,2.36-.04,3.08-.16l1.68,1.68q-.44.4-1.24,1.2c-.72.72-2.52,2.2-3.6,3-1.04.76-1.92,1.28-3.88,2.4v1.76h7c1.76,0,2.96-.08,4.08-.24v2.72c-1.16-.16-2.44-.24-4.12-.24h-6.96v9.16Z"/>
      </g>
    </g>
  </g>
</svg>