<?xml version="1.0" encoding="UTF-8"?>
<svg id="_レイヤー_2" data-name="レイヤー 2" xmlns="http://www.w3.org/2000/svg" viewBox="0 0 400 100">
  <defs>
    <style>
      .cls-1 {
        fill: #e6e6e6;
      }

      .cls-1, .cls-2 {
        stroke-width: 0px;
      }

      .cls-2 {
        fill: #ccc;
      }
    </style>
  </defs>
  <g id="_素材" data-name="素材">
    <g>
      <rect class="cls-2" width="400" height="100" rx="6" ry="6"/>
      <g>
        <path class="cls-1" d="m190.56,36.91c-1.64,0-2.8.08-4.2.24v-2.76c1.16.16,2.48.24,4.2.24h27c1.72,0,2.92-.08,4.2-.24v2.76c-1.24-.16-2.64-.24-4.2-.24h-12.04v3.92h8.04c2.52,0,3.56-.04,4.72-.2-.12,1.36-.16,2.44-.16,4.4v6.84c0,1.88.04,2.92.16,4.24-1.24-.16-2.44-.2-4.6-.2h-9.08c-.64,2.6-1.4,4.4-2.72,6.08,4.72,2.84,10.76,4.24,18.12,4.24.44,0,1.2,0,2.36-.04-.48.8-.72,1.52-1.08,2.84-9.04-.12-15.48-1.72-21-5.24-3.28,3.08-7.16,4.84-12.92,6-.36-1.08-.48-1.36-1.2-2.44,2.92-.44,4.48-.84,6.56-1.68,2.32-.92,4-1.88,5.6-3.28-1.44-1.16-2.04-1.72-3.52-3.28-.16-.16-.56-.56-.88-.88l2.32-1.36c.72,1.16,2.08,2.56,3.68,3.8,1.04-1.4,1.6-2.64,2.12-4.76h-7.32c-2.16,0-3.4.04-4.6.2.08-1.4.16-2.6.16-4.28v-6.8c0-1.92-.04-3.12-.16-4.4,1.24.16,2.16.2,4.64.2h8.24v-3.92h-12.44Zm2.16,6.04v4.2h10.16c.04-1.84.08-2.56.08-4.2h-10.24Zm0,6.28v4.56h9.72c.16-1.52.24-2.48.36-4.56h-10.08Zm12.6,0c-.08,1.92-.16,2.8-.36,4.56h10.68v-4.56h-10.32Zm.08-2.08h10.24v-4.2h-10.16l-.08,4.2Z"/>
        <path class="cls-1" d="m229.4,54.79c-1.56,0-2.32.04-3.28.24v-2.64c.92.2,1.72.24,3.36.24h4.88v-2.12c0-.52-.08-1.16-.2-1.64h2.68c-.12.48-.16,1.12-.16,1.64v2.12h4.4c1.4,0,2.2-.04,3.24-.24v2.6c-.92-.16-1.72-.2-3.24-.2h-3.8c1.52,2.12,2.64,3.16,5.64,5.08-.64.76-.92,1.24-1.4,2.16-2.6-2.2-3.44-3.12-5-5.52.08.88.12,2.04.16,3.52v5.8c0,1.4.04,2.36.2,3.44h-2.76c.16-1.04.24-2.12.24-3.44v-5.68c0-.96.04-2,.12-3.32-1.64,3.44-3.92,6.08-7.56,8.88-.44-.92-.88-1.56-1.52-2.24,2-1.32,3.72-2.76,5.2-4.4,1.2-1.36,1.8-2.2,2.92-4.28h-4.12Zm7.12-8.92c1.4-2.36,2.12-4.16,2.68-6.56l2.4.76c-.96,2.4-1.8,4.24-2.72,5.8h2.36c1.52,0,2.32-.04,3.24-.2v2.68c-1-.16-1.8-.2-3.24-.2h-11.88c-1.56,0-2.4.04-3.32.2v-2.68c.88.16,1.72.2,3.32.2h7.16Zm4.08-9.2c1.64,0,2.4-.04,3.36-.2v2.68c-1.08-.16-1.84-.2-3.4-.2h-10.24c-1.68,0-2.44.04-3.48.2v-2.68c.92.16,1.76.2,3.52.2h4v-1.08c0-1.28-.04-1.92-.2-2.8h2.92c-.16.84-.2,1.48-.2,2.8v1.08h3.72Zm-9.16,8.84c-.68-2.24-1.2-3.48-2.28-5.36l2.12-.8c1.12,2,1.6,3.2,2.28,5.4l-2.12.76Zm27.39.08c1.8,0,2.76-.08,3.68-.24v2.76c-1-.16-1.88-.2-3.52-.2h-1.48v17.44c0,2,.04,3,.24,4h-3.08c.16-1.04.24-2.04.24-4v-17.44h-6.28v1.56c-.04,5.32-.88,10.72-2.28,14.36-.8,2.12-1.6,3.64-2.96,5.48-.84-.8-1.28-1.16-2.28-1.68,3.84-4.72,5.04-10.32,5.04-23.68,0-4.52-.08-6.24-.2-7.4h.48c2.12,0,6.2-.8,9.48-1.84,1.68-.56,2.68-1,3.68-1.72l2.04,2.24c-.36.12-.4.12-1.44.56-3.32,1.36-6.36,2.12-11.52,2.96v6.84h10.16Z"/>
      </g>
    </g>
  </g>
</svg>