<?xml version="1.0" encoding="UTF-8"?>
<svg id="_レイヤー_2" data-name="レイヤー 2" xmlns="http://www.w3.org/2000/svg" viewBox="0 0 54 54">
  <defs>
    <style>
      .cls-1 {
        fill: #c1272d;
      }

      .cls-1, .cls-2 {
        stroke-width: 0px;
      }

      .cls-2 {
        fill: #f2f2f2;
      }
    </style>
  </defs>
  <g id="_素材" data-name="素材">
    <g>
      <circle class="cls-2" cx="27" cy="27" r="27"/>
      <path class="cls-1" d="m33,20h-13.23l5.06-5.22c.23-.24.23-.63,0-.87l-1.69-1.73c-.23-.24-.61-.24-.85,0l-9.11,9.39c-.23.24-.23.63,0,.87l9.11,9.39c.23.24.61.24.85,0l1.69-1.73c.23-.24.23-.63,0-.87l-5.06-5.22h13.23c2.21,0,4,1.79,4,4v6c0,2.21-1.79,4-4,4h-17v4h17c4.41,0,8-3.59,8-8v-6c0-4.41-3.59-8-8-8Z"/>
    </g>
  </g>
</svg>