<?xml version="1.0" encoding="UTF-8"?>
<svg id="_レイヤー_2" data-name="レイヤー 2" xmlns="http://www.w3.org/2000/svg" viewBox="0 0 400 100">
  <defs>
    <style>
      .cls-1 {
        fill: #0063cc;
      }

      .cls-1, .cls-2 {
        stroke-width: 0px;
      }

      .cls-2 {
        fill: #fff;
      }
    </style>
  </defs>
  <g id="_素材" data-name="素材">
    <g>
      <rect class="cls-1" width="400" height="100" rx="6" ry="6"/>
      <g>
        <path class="cls-2" d="m170.32,64.63c0,2.24.08,3.48.24,4.48h-2.96c.16-1.12.24-2.32.24-4.52v-26.04c0-1.96-.04-3.12-.16-4.4,1.16.12,2.24.16,4.16.16h5.88c2,0,2.96-.04,4.08-.16-.08,1.2-.12,2.24-.12,3.8v5c0,1.6.04,2.64.12,3.64-.88-.08-2.4-.12-4.08-.12h-7.4v18.16Zm0-25.16h9.04v-3.24h-9.04v3.24Zm0,5.12h9.04v-3.2h-9.04v3.2Zm6.72,8.72c-1.44,0-2.56.04-3.72.2v-2.44c1.12.16,2.24.2,3.8.2h8.96v-.44c0-1.36-.04-1.84-.24-2.84h2.72c-.12.72-.16,1.56-.16,2.44v.84h2.48c1.52,0,2.6-.04,3.76-.2v2.44c-1.2-.16-2.28-.2-3.68-.2h-2.52l.12,11c.04,2.4-.88,3.12-3.92,3.12-1.04,0-2.16-.08-3.56-.2-.12-.96-.24-1.48-.64-2.52,1.6.32,2.92.48,4.24.48,1.24,0,1.6-.28,1.56-1.28l-.12-9.72c-2.84,4.24-6.92,7.76-12.08,10.56-.48-.8-.84-1.24-1.68-2,5.24-2.52,9.32-5.72,11.96-9.44h-7.28Zm23.2,11.96c0,2.6-.76,3.24-4.04,3.24-1.2,0-2.32-.04-3.6-.16-.16-1.04-.36-1.68-.76-2.6,1.72.28,3.12.4,4.08.4,1.56,0,1.84-.16,1.84-1.16v-18.48h-7.88c-1.76,0-3.2.04-4.08.12.08-1.28.12-2.12.12-3.68v-5c0-1.48-.04-2.52-.12-3.8,1.2.12,2.16.16,4.12.16h6.28c1.96,0,3.04-.04,4.24-.16-.16,1.44-.2,2.56-.2,4.4v26.72Zm-12-25.8h9.52v-3.24h-9.52v3.24Zm0,5.12h9.52v-3.2h-9.52v3.2Z"/>
        <path class="cls-2" d="m216.76,35.35c-.24,1.32-.4,3.36-.52,8.4-.16,4.84-.28,10.24-.28,12.04,0,.48.04,1.52.08,2.4.16,2.4.68,3.72,1.88,4.8,1.12,1,2.92,1.56,5,1.56,4.76,0,8.44-2.4,10.72-6.96.92-1.88,1.4-3.44,1.96-6.28,1.12.96,1.6,1.28,2.88,1.96-1.52,4.64-2.68,7-4.44,9.08-2.84,3.32-6.6,4.96-11.28,4.96-3.4,0-5.92-.96-7.52-2.8-1.64-1.88-2.2-4-2.2-8.2,0-2.68.04-3.68.36-16.28.04-1.2.04-1.92.04-2.6,0-.84-.04-1.28-.16-2.12l3.48.04Zm11.24,1.12c1.88,2,2.96,3.44,4.24,5.56l-2.08,1.16c-1.24-2.2-2.32-3.64-4.16-5.6l2-1.12Zm3.84-2.12c1.84,2,2.92,3.44,4.24,5.56l-2.08,1.16c-1.24-2.16-2.32-3.64-4.16-5.6l2-1.12Z"/>
        <path class="cls-2" d="m253.48,36.43c1.12.2,1.84.24,3.76.24,3.32,0,8.64-.24,12.24-.52,1.04-.08,1.4-.16,1.92-.44l1.68,2.2c-.56.28-.76.44-2.04,1.68-5.52,5.4-10.36,9.56-13.16,11.36l.08.12c3.04-1.64,6.28-2.48,9.8-2.48,6.68,0,10.96,3.28,10.96,8.4,0,6.24-5.8,10.36-14.68,10.36-5.64,0-8.88-2.08-8.88-5.76,0-2.68,2.48-4.68,5.8-4.68,2.68,0,5,1.16,6.6,3.28.84,1.12,1.28,2.08,1.84,3.84,4.2-1.16,6.4-3.6,6.4-7,0-3.84-3.2-6.12-8.6-6.12-5.88,0-12.2,2.56-16.84,6.84l-1.8-2.56c1.44-.84,2.88-1.88,5.6-4.08,4.28-3.4,10.6-8.96,13.36-11.68q.24-.24.56-.56s.08-.08.16-.16l.16-.16-.08-.08q-.12,0-.36.04c-1.28.24-6.08.52-12.16.72-.88.04-1.28.08-2.16.2l-.16-3Zm7.52,22.76c-2,0-3.24.96-3.24,2.48,0,1.04.52,1.8,1.6,2.44,1.04.56,2.76.92,4.48.92,1,0,1.48-.04,2.92-.28-.88-3.64-2.88-5.56-5.76-5.56Z"/>
      </g>
    </g>
  </g>
</svg>