<?xml version="1.0" encoding="UTF-8"?>
<svg id="_レイヤー_2" data-name="レイヤー 2" xmlns="http://www.w3.org/2000/svg" viewBox="0 0 400 100">
  <defs>
    <style>
      .cls-1 {
        fill: #0063cc;
      }

      .cls-1, .cls-2 {
        stroke-width: 0px;
      }

      .cls-2 {
        fill: #fff;
      }
    </style>
  </defs>
  <g id="_素材" data-name="素材">
    <g>
      <rect class="cls-1" width="400" height="100" rx="6" ry="6"/>
      <g>
        <path class="cls-2" d="m169.4,54.79c-1.56,0-2.32.04-3.28.24v-2.64c.92.2,1.72.24,3.36.24h4.88v-2.12c0-.52-.08-1.16-.2-1.64h2.68c-.12.48-.16,1.12-.16,1.64v2.12h4.4c1.4,0,2.2-.04,3.24-.24v2.6c-.92-.16-1.72-.2-3.24-.2h-3.8c1.52,2.12,2.64,3.16,5.64,5.08-.64.76-.92,1.24-1.4,2.16-2.6-2.2-3.44-3.12-5-5.52.08.88.12,2.04.16,3.52v5.8c0,1.4.04,2.36.2,3.44h-2.76c.16-1.04.24-2.12.24-3.44v-5.68c0-.96.04-2,.12-3.32-1.64,3.44-3.92,6.08-7.56,8.88-.44-.92-.88-1.56-1.52-2.24,2-1.32,3.72-2.76,5.2-4.4,1.2-1.36,1.8-2.2,2.92-4.28h-4.12Zm7.12-8.92c1.4-2.36,2.12-4.16,2.68-6.56l2.4.76c-.96,2.4-1.8,4.24-2.72,5.8h2.36c1.52,0,2.32-.04,3.24-.2v2.68c-1-.16-1.8-.2-3.24-.2h-11.88c-1.56,0-2.4.04-3.32.2v-2.68c.88.16,1.72.2,3.32.2h7.16Zm4.08-9.2c1.64,0,2.4-.04,3.36-.2v2.68c-1.08-.16-1.84-.2-3.4-.2h-10.24c-1.68,0-2.44.04-3.48.2v-2.68c.92.16,1.76.2,3.52.2h4v-1.08c0-1.28-.04-1.92-.2-2.8h2.92c-.16.84-.2,1.48-.2,2.8v1.08h3.72Zm-9.16,8.84c-.68-2.24-1.2-3.48-2.28-5.36l2.12-.8c1.12,2,1.6,3.2,2.28,5.4l-2.12.76Zm27.39.08c1.8,0,2.76-.08,3.68-.24v2.76c-1-.16-1.88-.2-3.52-.2h-1.48v17.44c0,2,.04,3,.24,4h-3.08c.16-1.04.24-2.04.24-4v-17.44h-6.28v1.56c-.04,5.32-.88,10.72-2.28,14.36-.8,2.12-1.6,3.64-2.96,5.48-.84-.8-1.28-1.16-2.28-1.68,3.84-4.72,5.04-10.32,5.04-23.68,0-4.52-.08-6.24-.2-7.4h.48c2.12,0,6.2-.8,9.48-1.84,1.68-.56,2.68-1,3.68-1.72l2.04,2.24c-.36.12-.4.12-1.44.56-3.32,1.36-6.36,2.12-11.52,2.96v6.84h10.16Z"/>
        <path class="cls-2" d="m215,51.99c2,3.8,3.52,5.8,6.52,8.52q-.68.76-1.56,2.2c-2.72-2.8-4.08-4.72-5.48-7.64-1.04,5.44-3.16,9.48-6.84,12.96-.64-.88-.96-1.16-2-1.8,2.76-2.32,4.04-4.12,5.32-7.44.84-2.12,1.32-4.08,1.6-6.8h-2.8c-1.28,0-2.32.08-3.4.24v-2.8c1,.16,2,.24,3.28.24h3.12c.08-1.28.16-3.48.24-6.6h-2.72c-1.2,0-2.2.08-3.28.24v-2.76c1,.16,2,.24,3.28.24h2.8v-3.44c0-1.64-.08-2.6-.24-3.56h2.84c-.16,1.2-.2,1.96-.2,4.36,0,1.04,0,1.24-.04,2.64h2.32c1.16,0,2.2-.08,3.16-.2v2.68c-.96-.16-1.84-.2-3-.2h-2.52c-.04,2.48-.12,3.88-.32,6.6h2.72c1.24,0,2.12-.04,3.16-.2v2.72c-.96-.16-1.88-.2-3-.2h-2.96Zm10.4,5.2c-1.16,0-2.16.04-3,.12.08-.76.12-1.84.12-3.84v-14.76c0-1.8-.04-2.96-.2-3.96,1.04.16,2.12.2,3.84.2h9.12c2,0,2.84-.04,3.88-.2-.12,1.2-.16,2.32-.16,4.08v14.88c0,1.72.04,2.64.16,3.64-.8-.12-2.08-.16-3.6-.16h-1.36v8.24c0,.8.28.92,2.4.92,1.88,0,2.56-.2,2.88-.8.4-.68.64-2.04.84-4.6.8.6,1.32.88,2.24,1.16-.76,6.12-1.2,6.52-6.6,6.52-3.32,0-4.12-.52-4.12-2.68v-8.76h-3.2c-.36,3.4-.96,5.28-2.28,7.12-1.04,1.44-2.6,2.68-4.64,3.76-.8.4-1.44.72-3,1.32-.64-.92-1.12-1.44-1.88-2.04,3.88-1.04,6.44-2.64,7.84-4.84.88-1.4,1.32-3,1.52-5.32h-.8Zm-.48-15.6h11.68v-4.4h-11.68v4.4Zm0,6.68h11.68v-4.52h-11.68v4.52Zm0,6.84h11.68v-4.68h-11.68v4.68Z"/>
        <path class="cls-2" d="m246.28,48.87c.96.16,1.6.2,3.08.2h2.16c1.12,0,2.08-.08,3-.2-.12,1.24-.16,2.16-.16,4.2v7.8c.56,1.48,1.28,2.36,2.64,3.24,1.88,1.24,4.36,1.64,9.92,1.64,7.08,0,12.2-.24,15.88-.72-.6,1.32-.72,1.68-.92,2.88-5.28.16-8.72.24-13.28.24-6.56,0-9.28-.36-11.56-1.48-1.72-.84-2.68-1.76-4.04-3.76-1.8,1.84-2.64,2.56-4.8,4.28-.48.36-.88.72-1.48,1.24l-1.32-2.6c1.76-.84,4.24-2.72,6.44-4.84v-9.64h-2.64c-1.32,0-1.92.04-2.92.2v-2.68Zm2.16-15c2.72,2.52,3.96,3.96,6.36,7.16l-2.04,1.8c-2.36-3.44-3.68-4.96-6.2-7.28l1.88-1.68Zm17.36,3.32c1.04-1.68,1.64-2.8,2.28-4.44l2.68.64c-.88,1.64-1.6,2.84-2.24,3.8h6.8c1.28,0,2.08-.04,2.88-.16-.12.84-.12,1.68-.12,2.68v4.88c0,1.16,0,2,.12,2.72-1.04-.08-1.76-.12-2.92-.12h-13.56v4.12h14.76c1.6,0,2.08,0,2.88-.12-.08.88-.12,1.64-.12,3.08v5.08c0,.88.04,1.64.12,2.68-.88-.08-1.72-.12-2.8-.12h-14.4c-1.2,0-2.16.04-3.08.12.08-.88.12-1.72.12-2.72v-19.56c0-.8-.04-1.52-.16-2.72,1.12.12,2.08.16,3.2.16h3.56Zm-4.08,7.84h13.88v-5.64h-13.88v5.64Zm0,14.64h15.04v-6.2h-15.04v6.2Z"/>
        <path class="cls-2" d="m299.84,40.51c1.88,0,2.96-.04,4.16-.16q-.16,1.16-.2,5.08c-.12,6.6-.6,12.88-1.32,17.04-.72,4-1.56,4.92-4.32,4.92-1.24,0-3-.16-4.88-.44-.04-1.16-.12-1.48-.4-2.64,1.84.4,3.52.64,4.68.64,1.08,0,1.6-.28,1.88-.96.52-1.32,1.28-6.56,1.52-10.76.2-3.8.28-6.04.32-10.32h-5.84c-.28,4.84-.72,7.88-1.52,11.36-.72,3.08-1.6,5.48-2.92,8.04-1.16,2.28-2,3.56-4.04,6.12-.64-.96-1.16-1.52-2.04-2.24,2.24-2.56,3.24-4,4.48-6.64,2.04-4.36,3.12-9.44,3.52-16.64h-2.4c-1.76,0-3.12.08-4.2.28v-2.96c.96.2,2.4.28,4.4.28h2.32c.08-1.12.08-1.96.08-3.2,0-2.56-.04-3.2-.28-4.36h3.04q-.2,1.04-.36,7.56h4.32Zm10.12,27.28h-2.76c.16-1.12.24-2.92.24-4.56v-21.2c0-1.84-.04-2.96-.2-4.2,1.16.16,2,.2,3.52.2h6.72c1.56,0,2.2-.04,3.48-.2-.16,1.24-.2,2.28-.2,4.2v21.52c0,1.52.08,2.72.24,3.92h-2.76v-2.88h-8.28v3.2Zm0-5.52h8.28v-21.92h-8.28v21.92Z"/>
      </g>
    </g>
  </g>
</svg>