<?xml version="1.0" encoding="UTF-8"?>
<svg id="_レイヤー_2" data-name="レイヤー 2" xmlns="http://www.w3.org/2000/svg" viewBox="0 0 160 80">
  <defs>
    <style>
      .cls-1 {
        fill: #e6e6e6;
        stroke-width: 0px;
      }
    </style>
  </defs>
  <g id="_素材" data-name="素材">
    <path class="cls-1" d="m113.1,69.47H44.95V19.84h16.6l6.75-9.63h21.3l6.76,9.63h16.74v49.63Zm-63.1-5.1h58.05V24.94h-14.3l-6.76-9.63h-16.08l-6.75,9.63h-14.16v39.44Zm29.03-4.26c-8.54,0-15.49-7-15.49-15.59s6.95-15.59,15.49-15.59,15.49,7,15.49,15.59-6.95,15.59-15.49,15.59Zm0-26.26c-5.84,0-10.6,4.79-10.6,10.67s4.75,10.67,10.6,10.67,10.6-4.79,10.6-10.67-4.75-10.67-10.6-10.67ZM4.23,0h25.4v24.56h-6.35v-14.18C13.09,17,6.35,28.2,6.35,40.94c0,14.86,9.16,27.66,22.28,33.48l-2.63,5.58C10.68,73.21,0,58.27,0,40.94,0,26.61,7.32,13.95,18.5,6.14H4.23V0Zm151.53,80h-25.4s0-24.56,0-24.56h6.35s0,14.18,0,14.18c10.19-6.61,16.93-17.82,16.93-30.56,0-14.86-9.16-27.66-22.28-33.48l2.63-5.58c15.31,6.79,26,21.73,26,39.06,0,14.33-7.32,26.99-18.5,34.8h14.27s0,6.14,0,6.14Z"/>
  </g>
</svg>