<?xml version="1.0" encoding="UTF-8"?>
<svg id="_レイヤー_2" data-name="レイヤー 2" xmlns="http://www.w3.org/2000/svg" viewBox="0 0 300 90">
  <defs>
    <style>
      .cls-1 {
        fill: #fff;
      }

      .cls-1, .cls-2 {
        stroke-width: 0px;
      }

      .cls-2 {
        fill: #5281e0;
      }
    </style>
  </defs>
  <g id="_素材" data-name="素材">
    <g>
      <rect class="cls-2" y="0" width="300" height="90" rx="45" ry="45"/>
      <g>
        <path class="cls-1" d="m104.54,35.59c1.09,3.11,2.39,5.38,4.79,8.36-.67.76-1.05,1.26-1.51,2.14-1.64-2.52-2.48-4.24-3.65-7.35.08,1.89.17,4.79.17,6.76v12.77c0,2.27.08,3.74.25,4.87h-2.98c.17-1.22.25-2.69.25-4.87v-11.89c0-1.89.08-4.12.21-6.64q-.38,1.3-1.18,4.12c-.84,2.98-2.14,5.92-3.95,8.82-.63-1.22-.97-1.64-1.68-2.39,2.69-3.7,5.12-9.49,6.13-14.7h-2.23c-1.26,0-2.23.04-2.94.17v-2.69c.71.13,1.6.17,2.94.17h2.69v-4.12c0-2.39-.04-3.32-.21-4.33h2.9c-.17,1.05-.21,2.23-.21,4.29v4.16h1.64c1.22,0,1.89-.04,2.65-.17v2.65c-.84-.08-1.64-.12-2.6-.12h-1.47Zm17.56,15.71c2.27,4.28,6.39,7.27,12.31,8.99-.71.88-1.13,1.6-1.55,2.56-6.01-2.23-10.29-5.75-12.64-10.5-1.01,2.77-2.6,5-4.92,6.81-1.72,1.34-3.74,2.39-7.06,3.7-.5-1.09-.88-1.64-1.6-2.35,6.3-1.76,9.66-4.5,11.3-9.2h-4.12c-1.6,0-2.65.04-3.82.17.08-.84.13-1.68.13-2.61v-4.91c0-1.26-.04-1.85-.13-2.73,1.26.12,1.6.12,3.7.12h5.46v-3.65h-1.93c-1.64,0-2.52.04-3.74.17v-2.35c-1.51,1.3-2.56,2.1-4.54,3.44-.63-1.09-1.01-1.55-1.72-2.1,5.33-3.11,8.82-6.6,11.43-11.47h2.9c1.39,2.23,2.69,3.74,4.71,5.59,2.65,2.35,5.17,3.95,8.61,5.5-.71.8-1.05,1.3-1.6,2.44-2.31-1.26-3.66-2.14-5.54-3.57v2.52c-1.18-.13-2.1-.17-3.74-.17h-2.35v1.55c0,.84,0,1.13-.04,2.1h5.8c1.76,0,2.73-.04,3.82-.12-.08,1.05-.13,2.02-.13,3.02v4.08c0,1.55.04,2.23.13,3.15-1.13-.13-2.27-.17-4.08-.17h-5.04Zm-9.54-7.77v5.63h5.92c.29-1.6.46-2.98.59-5.63h-6.51Zm11.43-8.11c1.68,0,2.65-.04,3.66-.13-3.28-2.48-4.87-4.16-7.48-7.81-1.93,3.28-3.57,5.21-6.43,7.81.97.08,1.93.13,3.49.13h6.76Zm-2.44,8.11c-.13,2.27-.29,3.99-.59,5.63h7.69v-5.63h-7.1Z"/>
        <path class="cls-1" d="m155.37,28.36c0-1.43-.08-2.31-.25-3.36h3.11c-.21.97-.25,1.85-.25,3.32v1.01h12.77c1.81,0,3.11-.08,4.29-.25v2.81c-1.34-.17-2.56-.25-4.29-.25h-10.59c4.29,4.49,9.41,7.27,16.42,8.99-.71.92-.88,1.22-1.55,2.65-3.91-1.34-6.43-2.48-9.28-4.24-3.4-2.06-5.71-4.03-7.94-6.89.08,1.22.13,2.1.13,2.69v2.06c0,1.09.04,1.89.25,2.69h-3.02c.13-.76.21-1.64.21-2.73v-2.02c0-.76.04-1.64.08-2.6-3.7,4.66-9.2,8.44-16.13,11.01-.46-.97-.88-1.6-1.6-2.35,5.92-1.81,11.72-5.29,15.37-9.24h-9.79c-1.68,0-2.9.08-4.2.25v-2.81c1.05.17,2.44.25,4.33.25h11.93v-.97Zm-9.83,16.59c0-1.76-.04-2.86-.17-4.24,1.13.08,2.48.12,4.37.12h14.11c1.93,0,3.4-.04,4.66-.12-.08,1.3-.13,2.77-.13,4.7v13.61h2.98c2.06,0,3.19-.08,4.33-.25v2.86c-1.22-.17-2.6-.25-4.45-.25h-28.4c-1.89,0-3.24.08-4.45.25v-2.86c1.09.21,2.31.25,4.37.25h2.77v-14.07Zm2.6,1.93h17.64v-3.74h-17.64v3.74Zm0,5.97h17.64v-3.7h-17.64v3.7Zm0,6.17h17.64v-3.91h-17.64v3.91Z"/>
        <path class="cls-1" d="m184.97,48.15c0-1.72,0-2.94.13-4.83-1.26,1.76-2.23,2.73-4.12,4.29-.71-1.34-.71-1.39-1.55-2.35,4.2-3.07,8.32-7.94,9.54-11.47l2.48,1.47c-.34.46-.5.67-1.18,1.72q-.76,1.26-2.65,3.78v17.31c0,2.23.04,3.82.21,4.92h-3.11c.13-1.18.25-2.81.25-4.92v-9.91Zm6.34-21.93q-.29.34-1.64,1.97c-2.35,2.82-5.04,5.25-8.11,7.31-.46-.84-1.01-1.51-1.68-2.14,4.2-2.56,7.56-5.76,9.07-8.74l2.35,1.6Zm5.63,6.01c-1.6,0-2.69.04-3.91.21v-2.77c1.05.17,2.18.25,3.95.25h5.59v-1.68c0-1.26-.08-2.27-.25-3.4h3.11c-.17,1.09-.21,2.06-.21,3.4v1.68h6.26c1.76,0,2.9-.08,3.99-.25v2.77c-1.22-.17-2.31-.21-3.95-.21h-6.3v5.54h7.86c1.76,0,3.11-.08,4.24-.25v2.81c-1.22-.17-2.44-.25-4.2-.25h-1.72v4.96h1.72c1.81,0,3.07-.08,4.2-.25v2.86c-1.13-.17-2.48-.25-4.2-.25h-1.72v11.89c0,1.47-.46,2.44-1.39,2.77-.76.25-2.1.42-3.74.42-1.01,0-2.39-.08-3.87-.17-.13-1.18-.29-1.85-.67-2.86,1.64.25,3.65.5,4.45.5,2.27,0,2.52-.08,2.52-1.01v-11.55h-13.44c-1.68,0-2.94.08-4.12.25v-2.86c1.13.17,2.27.25,4.07.25h13.48v-4.96h-13.19c-1.68,0-2.9.08-4.03.25v-2.81c1.09.17,2.27.25,4.03.25h7.06v-5.54h-5.63Zm3.86,25.41c-2.23-3.23-3.65-4.87-6.38-7.27l2.02-1.55c2.69,2.44,4.12,3.99,6.59,7.06l-2.23,1.76Z"/>
        <path class="cls-1" d="m225.08,32.65c1.97.5,4.66.71,9.07.71.88-3.28,1.3-5.63,1.34-7.52l3.36.34q-.21.63-.67,2.69c-.59,2.44-.71,2.94-1.13,4.45,8.23-.29,13.82-.88,16.55-1.81l.21,3.02c-.71.08-.97.08-1.85.21-5.88.76-9.24,1.01-15.58,1.22-1.18,4.08-3.02,8.86-4.2,10.8l.04.08c2.94-2.18,7.64-3.53,12.22-3.53,6.64,0,10.88,3.03,10.88,7.73,0,5.71-5.59,9.45-14.07,9.45-3.74,0-7.02-.5-10.38-1.64.04-.29.04-.55.04-.67v-.25c0-.21-.08-.97-.21-2.31,3.28,1.43,6.68,2.1,10.5,2.1,6.64,0,11.01-2.65,11.01-6.68,0-3.19-3.02-5.12-8.07-5.12-3.23,0-6.89.84-9.75,2.27-1.72.84-2.69,1.6-3.53,2.69l-3.02-1.22c1.81-2.86,4.2-8.74,5.63-13.7-2.69-.04-4.54-.12-6.97-.29-.55-.04-.92-.04-1.18-.04h-.34l.08-2.98Z"/>
      </g>
    </g>
  </g>
</svg>