<?xml version="1.0" encoding="UTF-8"?>
<svg id="_レイヤー_2" data-name="レイヤー 2" xmlns="http://www.w3.org/2000/svg" viewBox="0 0 300 120">
  <defs>
    <style>
      .cls-1 {
        fill: #e6e6e6;
      }

      .cls-1, .cls-2 {
        stroke-width: 0px;
      }

      .cls-2 {
        fill: #fff;
      }
    </style>
  </defs>
  <g id="_素材" data-name="素材">
    <g>
      <rect class="cls-1" width="300" height="120" rx="6" ry="6"/>
      <g>
        <path class="cls-2" d="m151.71,52.46c-.95,0-1.67.04-2.51.19v-2.51c.84.15,1.44.19,2.51.19h1.75v-3.57c0-1.79-.08-2.74-.23-3.88h2.81c-.19,1.1-.23,2.09-.23,3.84v3.61h1.33c1.06,0,1.6-.04,2.32-.15v2.43c-.68-.11-1.29-.15-2.32-.15h-1.33v8.13c1.18-.42,1.56-.57,2.85-1.1v2.17c-1.37.57-1.75.72-2.85,1.1v11.44c0,2.09-.68,2.62-3.46,2.62-.68,0-1.56-.04-2.55-.11-.08-.84-.19-1.41-.49-2.32,1.25.19,2.13.27,3.15.27.8,0,.99-.15.99-.84v-10.22q-3.34,1.1-4.03,1.41l-.61-2.51c1.03-.11,1.94-.34,4.63-1.18v-8.85h-1.75Zm8.44,6.34c-.91.04-1.48.08-2.05.15v-2.2c1.14.15,1.98.19,3.46.19h17.74c1.9,0,2.93-.04,3.88-.19v2.24c-1.1-.15-2.01-.19-3.76-.19h-9.65v14.82c0,1.6.04,2.58.19,3.72h-2.51c.15-1.44.23-2.43.23-3.65v-1.48c-2.28.61-4.14,1.03-7.75,1.71-.65.11-1.48.34-2.01.49l-.46-2.32c.91,0,1.22-.04,2.7-.27v-13.03Zm4.67-3.99c-1.56,0-2.58.04-3.5.15.11-1.14.15-2.17.15-3.46v-4.37c0-1.33-.04-2.2-.15-3.23.95.11,1.75.15,3.57.15h11.74c1.79,0,2.58-.04,3.57-.15-.11,1.06-.15,1.94-.15,3.31v4.33c0,1.25.04,2.39.15,3.42-.95-.11-1.94-.15-3.5-.15h-11.89Zm-2.62,6.8h5.55v-2.81h-5.55v2.81Zm0,4.56h5.55v-2.85h-5.55v2.85Zm0,5.32c3.15-.57,3.38-.65,5.55-1.14v-2.47h-5.55v3.61Zm1.52-22.95h14.1v-2.62h-14.1v2.62Zm0,4.45h14.1v-2.66h-14.1v2.66Zm18.46,9.5c-.3.61-.38.8-.68,1.63-1.03,2.62-2.05,4.56-3.5,6.5,1.71,1.75,3.38,2.96,5.89,4.22-.53.53-.91,1.1-1.41,2.01-2.51-1.56-4.1-2.81-5.78-4.64-1.79,1.98-3.04,3.12-5.17,4.48-.46-.68-.88-1.18-1.48-1.71,2.28-1.37,3.5-2.36,5.32-4.37-1.71-2.24-2.28-3.46-3.53-7.37-.68.04-.83.08-1.29.15v-2.24c.72.11,1.41.15,2.74.15h5.24c1.29,0,2.01-.04,2.58-.11l1.06,1.29Zm-8.32.76c.88,2.74,1.52,4.1,2.77,5.81,1.37-1.9,2.13-3.38,2.92-5.81h-5.7Z"/>
        <path class="cls-2" d="m193.4,69.51c-1.44,3-2.58,4.52-4.83,6.65-.53-.61-.95-.99-1.71-1.52,2.36-1.98,3.31-3.19,4.56-6l1.98.87Zm-.68-15.46c-1.9,0-2.81.04-3.5.11.12-1.14.15-2.17.15-3.31v-3.76c0-1.48-.04-2.39-.15-3.38,1.03.11,1.94.15,3.61.15h9.35c1.63,0,2.66-.04,3.61-.15-.11.95-.11,1.41-.11,3.46v3.69c0,1.41.04,2.36.11,3.31-.65-.08-1.63-.11-3.46-.11h-3.8v2.51h5.36c1.79,0,2.62-.04,3.57-.19v2.39c-.95-.15-1.9-.19-3.53-.19h-13.22c-1.71,0-2.81.08-3.69.23v-2.47c.84.15,1.9.23,3.69.23h5.55v-2.51h-3.53Zm-.08,13.45c-1.25,0-1.94.04-2.81.15.11-.8.15-1.48.15-2.43v-2.17c0-.91-.04-1.63-.15-2.47.87.11,1.48.15,2.81.15h9.61c1.33,0,1.97-.04,2.81-.15-.08.84-.11,1.63-.11,2.47v2.17c0,.84.04,1.6.11,2.43-.87-.11-1.6-.15-2.85-.15h-3.61v6.84c0,1.03-.15,1.63-.53,2.01-.38.38-.91.49-2.58.49-.8,0-1.41-.04-2.58-.15-.08-.76-.23-1.56-.46-2.32,1.03.27,1.98.38,2.96.38.8,0,.91-.11.91-.76v-6.5h-3.69Zm-1.06-19.45h11.89v-2.36h-11.89v2.36Zm0,4.18h11.89v-2.39h-11.89v2.39Zm.61,13.49h10.56v-3.08h-10.56v3.08Zm11.66,9.38c-.99-2.2-1.71-3.46-3.15-5.4l1.79-.8c1.41,1.86,2.32,3.23,3.34,5.13l-1.97,1.06Zm17.74-10.14q-.95.87-3,3.12c-1.25,1.41-3.42,3.31-5.4,4.83-2.13,1.6-3.61,2.47-6.19,3.8-.42-.87-.72-1.29-1.48-2.24,3.91-1.6,7.26-3.95,10.83-7.52,1.56-1.6,2.54-2.77,3.12-3.8l2.13,1.82Zm-.95-10.68c-.61.49-1.03.87-1.56,1.44-3.42,3.53-6.57,6-10.83,8.36-.42-.84-.84-1.48-1.48-2.2,2.92-1.22,5.7-3.12,8.51-5.74,1.79-1.67,2.66-2.62,3.23-3.57l2.13,1.71Zm-1.18-9.8q-.57.49-1.9,1.79c-3.49,3.38-5.28,4.75-9.19,6.92-.46-.91-.8-1.41-1.52-2.17,3.19-1.33,5.7-3.04,8.21-5.55,1.1-1.1,1.44-1.52,2.2-2.54l2.2,1.56Z"/>
      </g>
    </g>
  </g>
</svg>