<?xml version="1.0" encoding="UTF-8"?>
<svg id="_レイヤー_2" data-name="レイヤー 2" xmlns="http://www.w3.org/2000/svg" viewBox="0 0 300 120">
  <defs>
    <style>
      .cls-1 {
        fill: #e6e6e6;
      }

      .cls-1, .cls-2 {
        stroke-width: 0px;
      }

      .cls-2 {
        fill: #fff;
      }
    </style>
  </defs>
  <g id="_素材" data-name="素材">
    <g>
      <rect class="cls-1" width="300" height="120" rx="6" ry="6"/>
      <g>
        <path class="cls-2" d="m136.3,50.71c1.37,0,2.17-.04,3.15-.15-.11.91-.15,1.6-.15,2.7v13.53c0,1.14.04,1.67.15,2.66-1.06-.11-1.86-.15-3.27-.15h-12.46c-1.41,0-2.2.04-3.27.15.11-.99.15-1.52.15-2.66v-13.53c0-1.1-.04-1.79-.15-2.7.99.11,1.82.15,3.15.15h5.09v-4.63h-11.47c-1.56,0-2.66.08-3.99.23v-2.62c1.1.15,2.32.23,3.99.23h25.61c1.63,0,2.77-.08,3.99-.23v2.62c-1.18-.15-2.51-.23-3.99-.23h-11.86v4.63h5.32Zm9.8.87c-.15,1.14-.23,2.39-.23,3.91v17.14c0,2.2.08,3.34.23,4.56h-2.66v-2.17h-26.75v2.17h-2.66c.15-1.18.23-2.43.23-4.6v-17.1c0-1.6-.08-2.77-.23-3.91h2.85c-.15.95-.23,1.94-.23,3.65v17.63h26.82v-17.67c0-1.6-.08-2.54-.23-3.61h2.85Zm-23.29,1.18v5.78h5.89v-5.78h-5.89Zm0,7.79v6.72h5.89v-6.72h-5.89Zm8.17-2.01h6.12v-5.78h-6.12v5.78Zm0,8.74h6.12v-6.72h-6.12v6.72Z"/>
        <path class="cls-2" d="m154.62,61.12c0-1.86.04-3.31.15-5.59-1.03,2.01-1.94,3.42-3.38,5.24q-.23-.34-.65-1.1c-.27-.46-.38-.65-.84-1.03,2.74-3.08,4.98-6.88,6.61-11.25.8-2.17,1.21-3.65,1.37-4.94l2.66.68c-.23.57-.38.99-.76,2.09-.8,2.36-1.82,4.83-2.85,6.92v20.17c0,2.24.04,3.5.15,4.71h-2.7c.15-1.33.23-2.58.23-4.67v-11.25Zm7.11-8.44q-.61.49-2.01,1.63c-.42-.65-.8-1.06-1.48-1.6,2.93-1.94,4.52-3.42,6.57-5.85,1.37-1.71,2.05-2.77,2.66-4.45l2.62.57q-.42.61-1.06,1.67c-.11.23-.19.34-.38.61h5.47c1.29,0,2.28-.04,2.96-.11l1.33,1.14c-.3.3-.46.49-1.03,1.25-.8.99-1.9,2.28-2.7,3h6.04c1.44,0,2.17-.04,2.96-.11-.08.8-.12,1.48-.12,2.81v2.36c0,1.75,0,2.01.08,2.85-.8-.08-1.6-.11-2.93-.11h-5.05c.61,2.17.95,3.12,1.82,4.94,2.39-1.41,4.22-2.89,5.51-4.52l1.94,1.6c-2.39,2.09-3.95,3.23-6.5,4.71,2.05,3.42,4.37,5.7,7.71,7.6-.49.68-.84,1.18-1.41,2.2-3.65-2.62-5.97-5.09-7.9-8.51-1.48-2.62-2.28-4.6-3.19-8.02h-1.75c-.95.8-1.18.99-1.82,1.48,1.41,1.29,2.36,2.55,3.19,4.1,1.25,2.36,1.98,5.17,1.98,7.79,0,2.01-.42,3.42-1.25,4.14-.65.57-1.63.8-3.61.8-.95,0-1.52-.04-2.77-.15-.15-.8-.27-1.29-.65-2.24,1.56.27,2.43.34,3.5.34,2.09,0,2.55-.57,2.55-3.12,0-.91-.04-1.56-.19-2.66-3.38,2.81-7.48,5.01-13.18,7.1-.3-.8-.61-1.25-1.25-2.01,5.55-1.67,10.56-4.18,14.02-7.03-.34-1.03-.57-1.52-1.06-2.43-3.15,2.28-6.95,4.14-11.78,5.78-.42-.84-.65-1.18-1.22-1.9,4.79-1.29,8.81-3.15,11.97-5.43-.61-.84-.99-1.22-1.79-1.98-2.58,1.63-5.21,2.77-8.89,3.84-.42-.87-.68-1.33-1.14-1.86,4.6-1.06,8.44-2.74,10.6-4.56h-4.52c-1.03,0-2.01.04-2.96.11.08-.8.11-1.75.11-2.74v-3.04Zm2.17,3.88h7.1v-4.22h-7.1v4.22Zm8.13-6c1.18-1.1,2.01-2.05,2.93-3.42h-7.67c-1.03,1.29-1.94,2.28-3.08,3.42h7.83Zm1.14,6h8.17v-4.22h-8.17v4.22Z"/>
        <path class="cls-2" d="m201.02,52c1.41,0,2.39-.04,3.5-.19-.11.84-.15,1.86-.15,3.38v18.54c0,2.09-.72,2.58-3.76,2.58-.53,0-.8,0-2.93-.11-.04-.87-.15-1.44-.46-2.32,1.44.19,2.81.3,3.53.3,1.18,0,1.48-.15,1.48-.8v-6.38h-9.01c-.42,4.75-.87,6.65-2.28,9.73-1.1-.99-1.14-.99-2.13-1.52,1.29-2.24,1.82-4.14,2.17-7.71.23-2.58.3-4.9.3-11.28,0-1.06,0-2.09-.04-2.93-.34.46-.49.65-.99,1.25-.61-.72-.87-.95-1.79-1.52,2.54-2.55,4.14-5.02,5.51-8.4.38-1.03.57-1.6.76-2.47l2.39.57c-.15.3-.19.38-.46,1.03-.38.95-.61,1.44-.65,1.52h3.61c1.25,0,1.67-.04,2.13-.11l1.14,1.25c-.38.53-.61.95-1.37,2.39-.42.91-1.25,2.36-1.75,3.19h1.21Zm-3.57,0c.87-1.41,1.67-2.89,2.55-4.75h-4.86c-.84,1.67-1.63,2.96-2.85,4.71.99.04,1.41.04,2.74.04h2.43Zm-.61,13.03v-4.71h-3.38q-.04,2.96-.11,4.71h3.49Zm-3.34-11.02v2.51l-.04,1.86h3.38v-4.37h-3.34Zm8.74,0h-3.42v4.37h3.42v-4.37Zm0,6.31h-3.42v4.71h3.42v-4.71Zm6.91-14.02c-1.71,0-2.74.08-3.61.23v-2.43c.95.15,1.98.23,3.8.23h8.66c1.48,0,2.51-.04,3.5-.15-.08.61-.08.72-.15,1.44-.15,1.98-.42,4.18-.68,5.58-.49,2.62-1.25,3.31-3.53,3.31-.91,0-1.97-.08-3.49-.27-.08-.91-.15-1.33-.46-2.24,1.48.3,2.51.46,3.38.46,1.1,0,1.48-.23,1.71-1.06.34-1.25.53-2.58.72-5.09h-5.58c-.42,2.28-.76,3.31-1.63,4.75-1.18,2.01-2.39,3.12-5.28,4.86-.38-.68-.8-1.22-1.56-1.86,2.51-1.33,3.8-2.39,4.79-3.95.72-1.1.99-1.9,1.29-3.8h-1.86Zm0,15.24c-.46,1.25-.84,2.01-1.79,3.5-.8-.53-1.25-.76-2.05-1.03,1.41-1.9,2.13-3.34,2.77-5.81.27-.91.38-1.44.38-1.82l2.32.53q-.65,1.9-.88,2.55h3.53v-.95c0-1.14-.08-2.09-.23-3.04h2.62c-.11.99-.19,1.86-.19,3.04v.95h2.89c1.82,0,2.81-.08,3.57-.23v2.51c-.91-.15-1.94-.19-3.57-.19h-2.89v4.6h3.91c1.48,0,2.47-.08,3.57-.23v2.51c-.91-.11-1.82-.15-3.46-.15h-4.03v5.24c0,1.44.08,2.36.23,3.38h-2.66c.15-1.06.23-1.98.23-3.38v-5.24h-4.75c-1.33,0-2.2.04-3.27.19v-2.55c1.03.15,1.94.23,3.3.23h4.71v-4.6h-4.29Z"/>
        <path class="cls-2" d="m233.28,45.92c0-1.37-.04-2.17-.23-3.15h2.81c-.19,1.03-.23,1.75-.23,3.19v4.29h2.77c1.14,0,1.67-.04,2.51-.19v2.51c-.87-.15-1.44-.19-2.51-.19h-2.55c.61,1.48.84,1.98,1.48,3,1.1,1.79,1.9,2.81,3.42,4.22-.61.68-.87,1.06-1.44,2.13-1.82-2.24-2.74-3.84-3.84-6.46.08,2.17.15,4.6.15,7.03v11.25c0,1.63.04,2.55.23,3.57h-2.77c.15-.95.23-1.94.23-3.53v-10.71c0-2.28.04-4.33.15-6.84-1.86,5.93-3,8.4-5.51,11.82-.57-.91-.99-1.37-1.71-1.94,2.77-3.15,5.13-8.02,6.65-13.53h-3.04c-1.1,0-1.6.04-2.36.19v-2.51c.8.15,1.33.19,2.54.19h3.23v-4.33Zm23.33,8.93c1.9,0,3.08-.08,4.41-.23v2.77c-1.33-.15-2.58-.23-4.41-.23h-1.79v15.65c0,1.56.08,3.04.23,4.29h-2.93c.15-1.29.27-2.81.27-4.29v-15.65h-7.37c-.34,10.18-1.6,14.97-5.21,19.76-.65-.8-1.14-1.18-2.01-1.79,1.67-2.01,2.54-3.61,3.27-6,1.14-3.72,1.63-8.85,1.63-17.1,0-2.81-.08-4.25-.23-5.47h.68c4.18,0,11.25-1.79,14.74-3.72l1.82,2.17q-.61.23-4.45,1.52c-3.08,1.06-5.89,1.67-10.18,2.2v3.27c0,.87-.04,1.52-.04,2.85h11.55Z"/>
      </g>
    </g>
  </g>
</svg>